<mxfile host="81092d26-753a-4015-92de-a76918c38abe" modified="2020-09-28T19:04:35.950Z" agent="5.0 (Windows NT 10.0; Win64; x64) AppleWebKit/537.36 (KHTML, like Gecko) Code/1.49.1 Chrome/83.0.4103.122 Electron/9.2.1 Safari/537.36" etag="Oj6sUofA6ZRMmb60rXwR" version="13.1.3">
    <diagram id="6a731a19-8d31-9384-78a2-239565b7b9f0" name="Page-1">
        <mxGraphModel dx="1374" dy="920" grid="1" gridSize="10" guides="1" tooltips="1" connect="1" arrows="1" fold="1" page="1" pageScale="1" pageWidth="1169" pageHeight="827" background="#1A1A1A" math="0" shadow="0">
            <root>
                <mxCell id="0"/>
                <mxCell id="1" value="Base 5-node" style="locked=1;" parent="0"/>
                <mxCell id="baM0oSwgijgu1ItRGs0o-2263" style="edgeStyle=none;shape=link;rounded=0;orthogonalLoop=1;jettySize=auto;html=1;exitX=0;exitY=0.98;exitDx=0;exitDy=0;exitPerimeter=0;entryX=0.5;entryY=0;entryDx=0;entryDy=0;entryPerimeter=0;width=7.297297297297295;" parent="1" source="baM0oSwgijgu1ItRGs0o-2258" target="baM0oSwgijgu1ItRGs0o-2260" edge="1">
                    <mxGeometry relative="1" as="geometry"/>
                </mxCell>
                <mxCell id="baM0oSwgijgu1ItRGs0o-2270" style="edgeStyle=none;shape=link;rounded=0;orthogonalLoop=1;jettySize=auto;html=1;exitX=0.87;exitY=0.74;exitDx=0;exitDy=0;exitPerimeter=0;entryX=0.16;entryY=0.23;entryDx=0;entryDy=0;entryPerimeter=0;width=7.837837837837839;" parent="1" source="baM0oSwgijgu1ItRGs0o-2258" target="baM0oSwgijgu1ItRGs0o-2262" edge="1">
                    <mxGeometry relative="1" as="geometry"/>
                </mxCell>
                <mxCell id="baM0oSwgijgu1ItRGs0o-2258" value="" style="shape=mxgraph.cisco.switches.workgroup_switch;html=1;pointerEvents=1;dashed=0;fillColor=#036897;strokeColor=#ffffff;strokeWidth=2;verticalLabelPosition=bottom;verticalAlign=top;align=center;outlineConnect=0;" parent="1" vertex="1">
                    <mxGeometry x="273" y="190" width="101" height="50" as="geometry"/>
                </mxCell>
                <mxCell id="baM0oSwgijgu1ItRGs0o-2267" style="edgeStyle=none;shape=link;rounded=0;orthogonalLoop=1;jettySize=auto;html=1;exitX=0.87;exitY=0.74;exitDx=0;exitDy=0;exitPerimeter=0;entryX=1;entryY=0;entryDx=0;entryDy=0;entryPerimeter=0;width=-0.2702702702702702;" parent="1" source="baM0oSwgijgu1ItRGs0o-2259" target="baM0oSwgijgu1ItRGs0o-2262" edge="1">
                    <mxGeometry relative="1" as="geometry"/>
                </mxCell>
                <mxCell id="baM0oSwgijgu1ItRGs0o-2271" style="edgeStyle=none;shape=link;rounded=0;orthogonalLoop=1;jettySize=auto;html=1;exitX=0.5;exitY=0.98;exitDx=0;exitDy=0;exitPerimeter=0;entryX=1;entryY=0;entryDx=0;entryDy=0;entryPerimeter=0;width=-0.2702702702702702;" parent="1" source="baM0oSwgijgu1ItRGs0o-2259" target="baM0oSwgijgu1ItRGs0o-2261" edge="1">
                    <mxGeometry relative="1" as="geometry"/>
                </mxCell>
                <mxCell id="baM0oSwgijgu1ItRGs0o-2259" value="" style="shape=mxgraph.cisco.switches.workgroup_switch;html=1;pointerEvents=1;dashed=0;fillColor=#036897;strokeColor=#ffffff;strokeWidth=2;verticalLabelPosition=bottom;verticalAlign=top;align=center;outlineConnect=0;" parent="1" vertex="1">
                    <mxGeometry x="770" y="190" width="101" height="50" as="geometry"/>
                </mxCell>
                <mxCell id="baM0oSwgijgu1ItRGs0o-2260" value="" style="shape=mxgraph.cisco.switches.workgroup_switch;html=1;pointerEvents=1;dashed=0;fillColor=#036897;strokeColor=#ffffff;strokeWidth=2;verticalLabelPosition=bottom;verticalAlign=top;align=center;outlineConnect=0;" parent="1" vertex="1">
                    <mxGeometry x="80" y="480" width="101" height="50" as="geometry"/>
                </mxCell>
                <mxCell id="baM0oSwgijgu1ItRGs0o-2265" style="edgeStyle=none;shape=link;rounded=0;orthogonalLoop=1;jettySize=auto;html=1;exitX=0.16;exitY=0.23;exitDx=0;exitDy=0;exitPerimeter=0;entryX=0.5;entryY=0.98;entryDx=0;entryDy=0;entryPerimeter=0;width=6.756756756756754;" parent="1" source="baM0oSwgijgu1ItRGs0o-2261" target="baM0oSwgijgu1ItRGs0o-2258" edge="1">
                    <mxGeometry relative="1" as="geometry"/>
                </mxCell>
                <mxCell id="baM0oSwgijgu1ItRGs0o-2266" style="edgeStyle=none;shape=link;rounded=0;orthogonalLoop=1;jettySize=auto;html=1;entryX=0;entryY=0.98;entryDx=0;entryDy=0;entryPerimeter=0;width=0.2702702702702702;" parent="1" source="baM0oSwgijgu1ItRGs0o-2260" target="baM0oSwgijgu1ItRGs0o-2259" edge="1">
                    <mxGeometry relative="1" as="geometry"/>
                </mxCell>
                <mxCell id="baM0oSwgijgu1ItRGs0o-2261" value="" style="shape=mxgraph.cisco.switches.workgroup_switch;html=1;pointerEvents=1;dashed=0;fillColor=#036897;strokeColor=#ffffff;strokeWidth=2;verticalLabelPosition=bottom;verticalAlign=top;align=center;outlineConnect=0;" parent="1" vertex="1">
                    <mxGeometry x="510" y="480" width="101" height="50" as="geometry"/>
                </mxCell>
                <mxCell id="baM0oSwgijgu1ItRGs0o-2262" value="" style="shape=mxgraph.cisco.switches.workgroup_switch;html=1;pointerEvents=1;dashed=0;fillColor=#036897;strokeColor=#ffffff;strokeWidth=2;verticalLabelPosition=bottom;verticalAlign=top;align=center;outlineConnect=0;" parent="1" vertex="1">
                    <mxGeometry x="960" y="480" width="101" height="50" as="geometry"/>
                </mxCell>
                <mxCell id="baM0oSwgijgu1ItRGs0o-2276" value="spine-1" style="text;html=1;align=center;verticalAlign=middle;resizable=0;points=[];autosize=1;" parent="1" vertex="1">
                    <mxGeometry x="390" y="170" width="50" height="20" as="geometry"/>
                </mxCell>
                <mxCell id="baM0oSwgijgu1ItRGs0o-2277" value="spine-2" style="text;html=1;align=center;verticalAlign=middle;resizable=0;points=[];autosize=1;" parent="1" vertex="1">
                    <mxGeometry x="880" y="170" width="50" height="20" as="geometry"/>
                </mxCell>
                <mxCell id="baM0oSwgijgu1ItRGs0o-2278" value="leaf-1" style="text;html=1;align=center;verticalAlign=middle;resizable=0;points=[];autosize=1;" parent="1" vertex="1">
                    <mxGeometry x="180" y="510" width="50" height="20" as="geometry"/>
                </mxCell>
                <mxCell id="baM0oSwgijgu1ItRGs0o-2279" value="leaf-2" style="text;html=1;align=center;verticalAlign=middle;resizable=0;points=[];autosize=1;" parent="1" vertex="1">
                    <mxGeometry x="610" y="510" width="50" height="20" as="geometry"/>
                </mxCell>
                <mxCell id="baM0oSwgijgu1ItRGs0o-2280" value="leaf-3" style="text;html=1;align=center;verticalAlign=middle;resizable=0;points=[];autosize=1;" parent="1" vertex="1">
                    <mxGeometry x="1061" y="510" width="50" height="20" as="geometry"/>
                </mxCell>
                <mxCell id="baM0oSwgijgu1ItRGs0o-2315" value="" style="ellipse;whiteSpace=wrap;html=1;fillColor=none;rotation=30;connectable=0;" parent="1" vertex="1">
                    <mxGeometry x="186" y="340" width="40" height="20" as="geometry"/>
                </mxCell>
                <mxCell id="baM0oSwgijgu1ItRGs0o-2319" value="" style="ellipse;whiteSpace=wrap;html=1;fillColor=none;rotation=-45;connectable=0;" parent="1" vertex="1">
                    <mxGeometry x="399" y="348" width="40" height="20" as="geometry"/>
                </mxCell>
                <mxCell id="baM0oSwgijgu1ItRGs0o-2320" value="" style="ellipse;whiteSpace=wrap;html=1;fillColor=none;rotation=-60;connectable=0;" parent="1" vertex="1">
                    <mxGeometry x="610" y="332" width="40" height="20" as="geometry"/>
                </mxCell>
                <mxCell id="baM0oSwgijgu1ItRGs0o-2273" value="Management" style="locked=1;" parent="0" visible="0"/>
                <mxCell id="baM0oSwgijgu1ItRGs0o-2281" value="10.250.254.2/24" style="text;html=1;align=center;verticalAlign=middle;resizable=0;points=[];autosize=1;" parent="baM0oSwgijgu1ItRGs0o-2273" vertex="1">
                    <mxGeometry x="390" y="190" width="100" height="20" as="geometry"/>
                </mxCell>
                <mxCell id="baM0oSwgijgu1ItRGs0o-2282" value="10.250.254.3/24" style="text;html=1;align=center;verticalAlign=middle;resizable=0;points=[];autosize=1;" parent="baM0oSwgijgu1ItRGs0o-2273" vertex="1">
                    <mxGeometry x="880" y="190" width="100" height="20" as="geometry"/>
                </mxCell>
                <mxCell id="baM0oSwgijgu1ItRGs0o-2283" value="10.250.254.4" style="text;html=1;align=center;verticalAlign=middle;resizable=0;points=[];autosize=1;" parent="baM0oSwgijgu1ItRGs0o-2273" vertex="1">
                    <mxGeometry x="180" y="530" width="90" height="20" as="geometry"/>
                </mxCell>
                <mxCell id="baM0oSwgijgu1ItRGs0o-2284" value="10.250.254.5" style="text;html=1;align=center;verticalAlign=middle;resizable=0;points=[];autosize=1;" parent="baM0oSwgijgu1ItRGs0o-2273" vertex="1">
                    <mxGeometry x="610" y="530" width="90" height="20" as="geometry"/>
                </mxCell>
                <mxCell id="baM0oSwgijgu1ItRGs0o-2285" value="10.250.254.6" style="text;html=1;align=center;verticalAlign=middle;resizable=0;points=[];autosize=1;" parent="baM0oSwgijgu1ItRGs0o-2273" vertex="1">
                    <mxGeometry x="1060" y="530" width="90" height="20" as="geometry"/>
                </mxCell>
                <mxCell id="baM0oSwgijgu1ItRGs0o-2286" value="Loopbacks" style="locked=1;" parent="0"/>
                <mxCell id="baM0oSwgijgu1ItRGs0o-2287" value="lo0: 10.250.1.1/32" style="text;html=1;align=center;verticalAlign=middle;resizable=0;points=[];autosize=1;" parent="baM0oSwgijgu1ItRGs0o-2286" vertex="1">
                    <mxGeometry x="380" y="210" width="110" height="20" as="geometry"/>
                </mxCell>
                <mxCell id="baM0oSwgijgu1ItRGs0o-2288" value="lo0: 10.250.1.2/32" style="text;html=1;align=center;verticalAlign=middle;resizable=0;points=[];autosize=1;" parent="baM0oSwgijgu1ItRGs0o-2286" vertex="1">
                    <mxGeometry x="870" y="210" width="110" height="20" as="geometry"/>
                </mxCell>
                <mxCell id="baM0oSwgijgu1ItRGs0o-2289" value="lo0: 10.250.1.3/32" style="text;html=1;align=center;verticalAlign=middle;resizable=0;points=[];autosize=1;" parent="baM0oSwgijgu1ItRGs0o-2286" vertex="1">
                    <mxGeometry x="170" y="546" width="110" height="20" as="geometry"/>
                </mxCell>
                <mxCell id="baM0oSwgijgu1ItRGs0o-2290" value="lo0: 10.250.1.4/32" style="text;html=1;align=center;verticalAlign=middle;resizable=0;points=[];autosize=1;" parent="baM0oSwgijgu1ItRGs0o-2286" vertex="1">
                    <mxGeometry x="600" y="546" width="110" height="20" as="geometry"/>
                </mxCell>
                <mxCell id="baM0oSwgijgu1ItRGs0o-2291" value="lo0: 10.250.1.5/32" style="text;html=1;align=center;verticalAlign=middle;resizable=0;points=[];autosize=1;" parent="baM0oSwgijgu1ItRGs0o-2286" vertex="1">
                    <mxGeometry x="1050" y="546" width="110" height="20" as="geometry"/>
                </mxCell>
                <mxCell id="baM0oSwgijgu1ItRGs0o-2292" value="Links" style="locked=1;" parent="0" visible="0"/>
                <mxCell id="baM0oSwgijgu1ItRGs0o-2293" value="10.250.0.0/30" style="text;html=1;align=center;verticalAlign=middle;resizable=0;points=[];autosize=1;" parent="baM0oSwgijgu1ItRGs0o-2292" vertex="1">
                    <mxGeometry x="105" y="320" width="90" height="20" as="geometry"/>
                </mxCell>
                <mxCell id="baM0oSwgijgu1ItRGs0o-2294" value="10.250.0.12/30" style="text;html=1;align=center;verticalAlign=middle;resizable=0;points=[];autosize=1;" parent="baM0oSwgijgu1ItRGs0o-2292" vertex="1">
                    <mxGeometry x="260" y="382" width="100" height="20" as="geometry"/>
                </mxCell>
                <mxCell id="baM0oSwgijgu1ItRGs0o-2295" value="10.250.0.4/30" style="text;html=1;align=center;verticalAlign=middle;resizable=0;points=[];autosize=1;" parent="baM0oSwgijgu1ItRGs0o-2292" vertex="1">
                    <mxGeometry x="398" y="434" width="90" height="20" as="geometry"/>
                </mxCell>
                <mxCell id="baM0oSwgijgu1ItRGs0o-2296" value="10.250.0.16/30" style="text;html=1;align=center;verticalAlign=middle;resizable=0;points=[];autosize=1;" parent="baM0oSwgijgu1ItRGs0o-2292" vertex="1">
                    <mxGeometry x="650" y="434" width="100" height="20" as="geometry"/>
                </mxCell>
                <mxCell id="baM0oSwgijgu1ItRGs0o-2297" value="10.250.0.8/30" style="text;html=1;align=center;verticalAlign=middle;resizable=0;points=[];autosize=1;" parent="baM0oSwgijgu1ItRGs0o-2292" vertex="1">
                    <mxGeometry x="780" y="382" width="90" height="20" as="geometry"/>
                </mxCell>
                <mxCell id="baM0oSwgijgu1ItRGs0o-2298" value="10.250.0.20/30" style="text;html=1;align=center;verticalAlign=middle;resizable=0;points=[];autosize=1;" parent="baM0oSwgijgu1ItRGs0o-2292" vertex="1">
                    <mxGeometry x="950" y="320" width="100" height="20" as="geometry"/>
                </mxCell>
                <mxCell id="baM0oSwgijgu1ItRGs0o-2299" value=".1" style="text;html=1;align=center;verticalAlign=middle;resizable=0;points=[];autosize=1;" parent="baM0oSwgijgu1ItRGs0o-2292" vertex="1">
                    <mxGeometry x="235" y="220" width="30" height="20" as="geometry"/>
                </mxCell>
                <mxCell id="baM0oSwgijgu1ItRGs0o-2300" value=".2" style="text;html=1;align=center;verticalAlign=middle;resizable=0;points=[];autosize=1;" parent="baM0oSwgijgu1ItRGs0o-2292" vertex="1">
                    <mxGeometry x="85" y="460" width="30" height="20" as="geometry"/>
                </mxCell>
                <mxCell id="baM0oSwgijgu1ItRGs0o-2301" value=".5" style="text;html=1;align=center;verticalAlign=middle;resizable=0;points=[];autosize=1;" parent="baM0oSwgijgu1ItRGs0o-2292" vertex="1">
                    <mxGeometry x="295" y="240" width="30" height="20" as="geometry"/>
                </mxCell>
                <mxCell id="baM0oSwgijgu1ItRGs0o-2302" value=".6" style="text;html=1;align=center;verticalAlign=middle;resizable=0;points=[];autosize=1;" parent="baM0oSwgijgu1ItRGs0o-2292" vertex="1">
                    <mxGeometry x="485" y="480" width="30" height="20" as="geometry"/>
                </mxCell>
                <mxCell id="baM0oSwgijgu1ItRGs0o-2303" value=".9" style="text;html=1;align=center;verticalAlign=middle;resizable=0;points=[];autosize=1;" parent="baM0oSwgijgu1ItRGs0o-2292" vertex="1">
                    <mxGeometry x="385" y="210" width="30" height="20" as="geometry"/>
                </mxCell>
                <mxCell id="baM0oSwgijgu1ItRGs0o-2304" value=".10" style="text;html=1;align=center;verticalAlign=middle;resizable=0;points=[];autosize=1;" parent="baM0oSwgijgu1ItRGs0o-2292" vertex="1">
                    <mxGeometry x="965" y="460" width="30" height="20" as="geometry"/>
                </mxCell>
                <mxCell id="baM0oSwgijgu1ItRGs0o-2305" value=".13" style="text;html=1;align=center;verticalAlign=middle;resizable=0;points=[];autosize=1;" parent="baM0oSwgijgu1ItRGs0o-2292" vertex="1">
                    <mxGeometry x="715" y="210" width="30" height="20" as="geometry"/>
                </mxCell>
                <mxCell id="baM0oSwgijgu1ItRGs0o-2306" value=".14" style="text;html=1;align=center;verticalAlign=middle;resizable=0;points=[];autosize=1;" parent="baM0oSwgijgu1ItRGs0o-2292" vertex="1">
                    <mxGeometry x="205" y="480" width="30" height="20" as="geometry"/>
                </mxCell>
                <mxCell id="baM0oSwgijgu1ItRGs0o-2307" value=".15" style="text;html=1;align=center;verticalAlign=middle;resizable=0;points=[];autosize=1;" parent="baM0oSwgijgu1ItRGs0o-2292" vertex="1">
                    <mxGeometry x="815" y="250" width="30" height="20" as="geometry"/>
                </mxCell>
                <mxCell id="baM0oSwgijgu1ItRGs0o-2308" value=".16" style="text;html=1;align=center;verticalAlign=middle;resizable=0;points=[];autosize=1;" parent="baM0oSwgijgu1ItRGs0o-2292" vertex="1">
                    <mxGeometry x="625" y="480" width="30" height="20" as="geometry"/>
                </mxCell>
                <mxCell id="baM0oSwgijgu1ItRGs0o-2309" value=".21" style="text;html=1;align=center;verticalAlign=middle;resizable=0;points=[];autosize=1;" parent="baM0oSwgijgu1ItRGs0o-2292" vertex="1">
                    <mxGeometry x="885" y="220" width="30" height="20" as="geometry"/>
                </mxCell>
                <mxCell id="baM0oSwgijgu1ItRGs0o-2310" value=".22" style="text;html=1;align=center;verticalAlign=middle;resizable=0;points=[];autosize=1;" parent="baM0oSwgijgu1ItRGs0o-2292" vertex="1">
                    <mxGeometry x="1065" y="440" width="30" height="20" as="geometry"/>
                </mxCell>
                <mxCell id="2" value="VTEPs" parent="0"/>
            </root>
        </mxGraphModel>
    </diagram>
</mxfile>